<?xml version="1.0" standalone="no"?>
<!DOCTYPE svg PUBLIC "-//W3C//DTD SVG 20010904//EN"
 "http://www.w3.org/TR/2001/REC-SVG-20010904/DTD/svg10.dtd">
<svg version="1.0" xmlns="http://www.w3.org/2000/svg"
 width="1280.000000pt" height="792.000000pt" viewBox="0 0 1280.000000 792.000000"
 preserveAspectRatio="xMidYMid meet">
<metadata>
Created by potrace 1.15, written by Peter Selinger 2001-2017
</metadata>
<g transform="translate(0.000000,792.000000) scale(0.100000,-0.100000)"
fill="#ffffff" stroke="none">
<path d="M11800 7880 c-41 -10 -92 -23 -112 -28 -38 -10 -144 -60 -234 -111
-83 -47 -194 -128 -278 -203 -47 -43 -78 -59 -186 -99 -115 -42 -426 -198
-502 -250 -14 -11 -29 -19 -32 -19 -13 0 -250 -160 -266 -180 -3 -4 -30 -26
-60 -49 -80 -63 -153 -131 -167 -155 -8 -13 -12 -64 -12 -136 -1 -103 11 -194
49 -400 10 -52 84 -343 104 -410 7 -25 19 -65 26 -90 7 -25 16 -56 20 -70 5
-14 16 -52 25 -85 9 -33 21 -71 25 -85 4 -14 16 -52 25 -85 9 -33 26 -85 36
-116 10 -30 19 -59 19 -63 0 -10 -60 -3 -155 19 -86 19 -157 35 -210 45 -22 4
-94 20 -160 34 -66 15 -143 31 -172 36 -48 8 -103 34 -103 49 -1 3 -21 29 -46
56 -25 28 -58 66 -72 85 -15 19 -30 37 -33 40 -18 15 -146 193 -214 296 -148
224 -208 374 -254 640 -14 80 -14 326 0 378 21 75 83 187 131 237 8 8 24 28
36 44 13 17 65 75 115 129 50 55 100 111 111 125 11 14 34 42 52 61 47 50 99
155 113 228 7 34 10 66 6 71 -3 5 -37 22 -76 37 l-71 28 -36 -39 c-19 -22 -67
-74 -107 -115 -232 -243 -435 -546 -501 -749 -21 -66 -24 -91 -24 -242 0 -159
18 -355 41 -444 28 -105 33 -122 46 -155 8 -19 18 -43 23 -52 6 -10 10 -23 10
-28 0 -6 16 -36 35 -66 19 -30 35 -58 35 -62 0 -7 94 -131 278 -366 61 -79
112 -149 112 -155 0 -7 -31 -11 -87 -11 -131 -1 -263 -23 -453 -75 -141 -38
-217 -52 -234 -43 -12 7 -35 34 -133 158 -6 8 -27 33 -45 56 -88 109 -161 208
-225 304 -46 69 -133 240 -133 261 0 9 -3 19 -7 23 -14 14 -41 106 -73 251
-35 160 -48 613 -21 730 27 117 64 208 124 302 15 24 27 45 27 48 0 4 36 63
80 132 l81 126 -23 26 c-13 14 -36 38 -51 53 -28 26 -30 26 -74 13 -59 -18
-106 -56 -167 -136 -82 -109 -192 -359 -227 -519 -31 -140 -36 -223 -22 -410
15 -210 25 -295 42 -360 7 -25 16 -61 21 -80 24 -101 76 -249 122 -346 31 -66
145 -264 157 -274 4 -3 15 -18 25 -35 31 -48 157 -204 235 -288 70 -77 83 -97
59 -97 -7 0 -40 -11 -73 -24 -33 -14 -105 -41 -160 -61 -55 -20 -109 -40 -120
-45 -177 -70 -291 -110 -312 -110 -49 0 -313 213 -423 341 -67 77 -160 196
-160 204 0 4 -13 25 -28 48 -81 118 -198 396 -232 547 -54 243 -70 372 -70
556 0 247 23 311 225 634 12 19 43 67 68 105 26 39 47 75 47 82 0 13 -121 73
-149 73 -31 0 -150 -139 -214 -249 -92 -161 -174 -372 -197 -508 -11 -67 -6
-205 15 -373 20 -169 75 -380 145 -560 43 -111 104 -239 147 -308 18 -29 33
-55 33 -59 0 -3 32 -51 72 -107 136 -192 288 -354 455 -487 43 -34 81 -68 86
-75 8 -14 -50 -45 -168 -89 -33 -12 -78 -29 -100 -37 -131 -49 -247 -71 -359
-66 -117 4 -97 -9 -391 257 -175 159 -310 312 -395 451 -57 91 -120 223 -120
250 0 10 -4 21 -9 24 -5 3 -11 18 -14 33 -2 16 -15 71 -27 123 -19 81 -22 126
-24 315 l-1 220 -41 14 c-22 8 -48 12 -56 8 -15 -5 -87 -180 -119 -287 -23
-75 -18 -242 9 -324 89 -266 391 -693 765 -1080 48 -49 88 -94 90 -100 2 -6
-15 -19 -37 -30 -162 -76 -316 -157 -385 -200 -22 -15 -43 -26 -45 -26 -24 0
-449 -292 -676 -463 -130 -99 -418 -326 -446 -352 -6 -5 -55 -46 -109 -90 -92
-75 -181 -149 -285 -235 -25 -21 -71 -59 -103 -85 -33 -25 -69 -55 -80 -65
-40 -34 -322 -256 -354 -278 -62 -44 -219 -119 -303 -145 -113 -35 -147 -43
-260 -61 -52 -8 -128 -20 -169 -27 -92 -14 -554 -15 -636 -1 -33 6 -103 18
-155 27 -326 55 -597 152 -842 302 -48 30 -93 59 -100 66 -7 7 -33 28 -58 48
-144 116 -264 266 -327 409 -53 117 -73 228 -73 391 0 128 4 168 25 258 14 58
30 115 35 126 4 11 21 54 36 95 110 305 377 693 594 862 110 86 322 206 490
277 30 13 69 29 85 36 36 15 230 89 370 140 220 80 345 130 442 176 55 26 110
50 121 53 15 5 39 -14 108 -85 49 -50 112 -107 139 -127 28 -20 58 -44 68 -53
22 -20 171 -94 217 -107 91 -27 124 -32 213 -32 224 0 375 80 625 330 60 60
99 107 94 112 -5 5 -34 4 -68 -3 -93 -17 -340 -23 -404 -9 -116 26 -245 80
-340 143 -84 56 -170 130 -170 147 0 9 57 74 128 145 168 170 286 246 451 293
67 18 370 20 497 3 44 -7 81 -8 86 -3 15 15 -130 160 -226 227 -118 81 -192
119 -311 156 -25 8 -95 13 -190 13 -164 -1 -232 -12 -370 -63 -157 -58 -339
-184 -510 -354 -77 -77 -156 -146 -175 -154 -19 -8 -50 -21 -67 -29 -49 -21
-136 -57 -175 -73 -13 -5 -41 -16 -63 -26 -22 -9 -49 -20 -60 -25 -11 -4 -47
-18 -80 -30 -33 -13 -73 -28 -90 -35 -16 -7 -61 -25 -100 -40 -84 -32 -65 -25
-300 -120 -164 -67 -527 -239 -635 -302 -140 -81 -393 -250 -505 -338 -126
-98 -289 -256 -397 -385 -60 -71 -234 -314 -269 -377 -75 -130 -150 -289 -199
-418 -18 -48 -40 -134 -40 -158 0 -14 -4 -29 -10 -32 -13 -8 -13 -332 0 -340
6 -3 10 -23 10 -43 0 -33 19 -124 48 -232 26 -98 148 -366 178 -391 8 -6 14
-16 14 -21 0 -6 26 -47 57 -91 268 -381 687 -684 1233 -895 150 -57 263 -97
325 -113 17 -4 75 -19 130 -34 148 -39 184 -46 375 -80 224 -39 497 -58 730
-50 203 6 413 32 543 65 136 36 214 58 242 70 11 5 29 11 40 13 29 8 221 75
280 99 28 11 59 24 70 28 11 4 46 20 78 34 32 14 63 26 70 26 7 0 17 4 23 8 5
5 25 15 44 22 19 8 73 31 120 53 47 22 110 50 140 64 30 14 98 46 150 70 52
25 122 58 155 73 33 15 103 48 155 73 52 24 118 54 145 66 28 12 59 26 70 31
54 23 212 80 223 80 7 0 20 4 30 9 9 5 44 17 77 26 33 9 71 20 85 25 29 10
218 53 305 70 33 6 79 16 103 22 53 13 62 6 34 -30 -119 -152 -282 -437 -347
-608 -81 -211 -109 -366 -109 -604 -1 -191 11 -268 51 -332 39 -64 93 -86 93
-38 0 10 4 21 10 25 5 3 8 102 7 248 -2 256 2 289 55 437 22 63 21 60 88 204
27 59 50 110 50 113 0 3 8 17 18 31 11 15 37 61 60 103 57 107 187 310 278
433 43 58 89 126 104 152 30 56 59 74 177 110 79 25 103 28 243 28 95 0 174
-4 205 -12 114 -30 166 -46 171 -54 3 -4 -24 -52 -59 -106 -179 -272 -304
-503 -411 -757 -10 -22 -21 -49 -26 -60 -51 -118 -101 -318 -139 -556 -14 -85
-14 -408 -1 -485 28 -158 61 -273 99 -344 5 -9 25 -16 48 -18 35 -3 41 0 47
20 9 36 7 327 -3 367 -29 112 -36 168 -35 286 0 72 6 162 12 200 20 110 33
178 42 205 5 14 16 52 25 85 24 85 28 98 75 215 45 112 150 327 181 372 11 14
19 29 19 32 0 12 199 308 219 326 6 5 111 130 118 139 2 2 13 0 26 -6 46 -22
133 -56 162 -64 17 -4 57 -15 90 -24 89 -25 142 -38 306 -70 125 -24 123 -22
74 -100 -14 -22 -28 -47 -32 -55 -4 -8 -22 -38 -40 -67 -18 -29 -33 -54 -33
-57 0 -3 -14 -29 -32 -58 -129 -217 -253 -514 -303 -725 -9 -37 -20 -84 -25
-103 -40 -155 -70 -535 -51 -666 28 -200 108 -460 176 -574 11 -19 27 -48 35
-65 22 -45 135 -155 159 -155 11 0 32 5 46 12 25 11 26 15 20 57 -8 63 -49
200 -81 276 -42 101 -90 239 -116 335 -34 122 -38 156 -38 292 0 151 10 249
42 418 11 58 22 119 25 135 8 49 73 253 115 360 41 103 154 338 209 435 42 75
140 223 153 232 6 4 116 4 246 1 212 -5 245 -4 340 15 58 11 113 24 123 27 35
14 14 -58 -100 -350 -41 -104 -79 -203 -84 -220 -6 -16 -15 -39 -19 -50 -36
-86 -97 -303 -111 -395 -24 -158 -29 -272 -23 -585 l7 -330 31 -50 c18 -27 37
-68 44 -90 7 -22 24 -65 38 -95 24 -51 37 -62 165 -153 76 -53 148 -97 159
-97 30 0 60 18 60 35 0 18 -77 262 -91 287 -5 10 -9 22 -9 28 0 5 -31 49 -70
97 -148 185 -173 284 -151 595 7 101 16 201 21 223 5 22 14 74 21 115 7 41 21
109 32 150 10 41 23 91 27 110 17 76 117 375 154 465 7 17 19 46 26 65 7 19
17 39 22 45 4 5 8 14 8 21 0 22 100 225 113 228 6 2 44 9 82 15 39 7 99 18
135 26 62 13 113 23 233 45 94 17 211 41 248 51 20 5 42 9 49 9 15 0 14 -7
-35 -220 -10 -41 -21 -93 -25 -115 -4 -22 -20 -96 -35 -165 -33 -150 -42 -196
-55 -276 -5 -34 -12 -68 -15 -76 -10 -26 -24 -157 -39 -373 l-16 -210 27 -39
c15 -21 68 -86 118 -145 243 -283 634 -636 935 -843 86 -59 344 -218 355 -218
2 0 37 -16 77 -35 81 -38 218 -85 248 -85 10 0 22 -4 25 -10 8 -13 248 -13
289 -1 17 5 58 17 91 26 83 23 187 76 246 126 52 43 166 179 190 227 7 15 23
43 35 62 27 43 94 221 94 250 0 11 5 20 10 20 6 0 10 9 10 20 0 22 -5 22 -90
0 -177 -45 -275 -60 -384 -60 -89 0 -221 18 -286 40 -14 4 -45 14 -70 21 -74
21 -74 20 -66 143 14 240 63 351 262 597 52 64 94 121 94 128 0 23 -211 11
-410 -25 -308 -56 -481 -205 -609 -527 -6 -15 -17 -27 -26 -27 -14 0 -168 72
-232 109 -98 56 -315 223 -443 339 l-64 59 18 119 c10 66 23 144 28 174 5 30
13 87 18 125 4 39 16 122 25 185 30 210 37 303 44 567 3 144 8 263 11 266 34
28 757 477 769 477 9 0 30 -12 46 -26 106 -92 274 -175 415 -205 92 -19 237
-39 293 -39 l59 0 -7 43 c-3 23 -10 56 -15 72 -4 17 -15 64 -24 105 -9 41 -21
93 -27 116 -18 70 -11 84 66 126 39 21 79 42 90 48 48 22 379 249 395 270 3 3
31 28 64 54 l58 47 -79 77 c-116 114 -229 187 -500 325 -57 28 -103 58 -103
66 0 12 60 198 80 246 15 37 70 205 70 215 0 14 -61 12 -155 -5 -96 -17 -155
-36 -250 -80 -65 -30 -233 -129 -245 -144 -3 -4 -20 -17 -38 -30 -19 -13 -61
-48 -95 -77 -34 -30 -69 -54 -77 -54 -8 0 -38 15 -65 33 -28 19 -192 123 -365
232 -173 109 -321 203 -328 210 -11 10 -17 36 -42 185 -5 30 -14 84 -20 120
-19 111 -41 252 -51 323 -5 37 -13 97 -18 135 -6 37 -17 117 -26 177 -8 61
-20 148 -25 195 -5 47 -14 128 -20 180 -6 52 -8 104 -5 115 6 22 77 70 325
223 162 99 389 202 446 202 11 0 29 -8 40 -17 131 -117 142 -126 244 -199 79
-56 149 -97 210 -122 128 -53 328 -61 475 -21 118 33 431 197 422 222 -3 9
-47 27 -142 56 -94 30 -297 131 -371 185 -78 56 -184 155 -184 170 0 17 61 64
145 113 145 84 294 116 595 129 131 6 161 10 145 22 -6 4 -27 28 -48 54 -197
246 -468 380 -764 377 -68 0 -136 -8 -183 -19z m-2199 -2853 c85 -115 193
-410 250 -682 6 -27 15 -68 21 -90 14 -52 13 -265 0 -336 -6 -30 -15 -83 -21
-119 -66 -414 -145 -704 -217 -789 -30 -36 -44 -38 -70 -10 -16 17 -18 34 -16
96 4 100 25 185 115 453 97 291 110 348 122 505 7 90 -11 243 -37 325 -39 122
-114 299 -195 461 -51 102 -93 196 -93 207 0 13 11 27 27 36 37 19 72 1 114
-57z m-1068 -83 c173 -87 322 -506 368 -1031 10 -120 4 -214 -21 -328 -4 -22
-14 -67 -20 -100 -7 -33 -18 -80 -25 -105 -7 -25 -18 -65 -25 -90 -27 -98 -96
-266 -131 -320 -44 -69 -84 -90 -122 -65 -22 14 -25 22 -21 53 8 55 34 140 64
207 15 33 36 80 48 105 145 323 171 467 137 756 -32 275 -101 446 -271 674
-78 104 -121 209 -101 241 15 24 75 25 120 3z m-970 -353 c89 -58 210 -318
283 -606 21 -79 24 -266 6 -337 -6 -24 -18 -77 -27 -118 -50 -236 -131 -416
-194 -433 -11 -2 -29 2 -40 10 -36 25 -27 82 34 218 138 308 165 503 102 730
-27 100 -139 300 -223 401 -24 28 -49 63 -55 78 -12 25 -10 29 17 51 35 29 60
31 97 6z m-867 -234 c52 -22 82 -47 126 -105 96 -127 181 -312 224 -487 15
-60 15 -78 4 -135 -20 -103 -39 -158 -88 -255 -62 -122 -87 -155 -115 -155
-18 0 -67 48 -67 65 0 25 30 82 79 150 71 97 83 140 78 272 -2 59 -8 124 -14
143 -31 107 -133 262 -252 380 -89 88 -87 85 -55 115 31 28 40 30 80 12z"/>
</g>
</svg>
