<?xml version="1.0" encoding="UTF-8"?>
<!DOCTYPE svg PUBLIC "-//W3C//DTD SVG 1.1//EN" "http://www.w3.org/Graphics/SVG/1.1/DTD/svg11.dtd">
<!-- Creator: CorelDRAW 2021.5 (Versión de evaluación) -->
<svg xmlns="http://www.w3.org/2000/svg" xml:space="preserve" width="127.107mm" height="97.6206mm" version="1.1" style="shape-rendering:geometricPrecision; text-rendering:geometricPrecision; image-rendering:optimizeQuality; fill-rule:evenodd; clip-rule:evenodd"
viewBox="0 0 12756.48 9797.19"
 xmlns:xlink="http://www.w3.org/1999/xlink"
 xmlns:xodm="http://www.corel.com/coreldraw/odm/2003">
 <defs>
  <style type="text/css">
   <![CDATA[
    .fil0 {fill:black}
    .fil4 {fill:#201E1E}
    .fil5 {fill:#373435}
    .fil2 {fill:#53322B}
    .fil1 {fill:#7C3A2F}
    .fil3 {fill:#FFF212}
   ]]>
  </style>
 </defs>
 <g id="Capa_x0020_1">
  <metadata id="CorelCorpID_0Corel-Layer"/>
  <g id="_2029032540944">
   <path class="fil0" d="M1935.75 33.99l-57.02 129.91c-10.87,25.41 -19.54,37.67 -30.4,63.07 -102.31,239.3 -232.49,495.95 -334.98,735.67l-181.01 396.8c-9.46,21.28 -20.18,38.87 -31.08,62.37 -12.79,27.58 -17.38,43.75 -31.08,70.89 -12.99,25.74 -17.13,37.55 -28.73,64.73 -11.42,26.74 -21.52,42.14 -33.65,68.3l-603.63 1325.22c-10.72,25.1 -19.09,38.03 -30.89,62.57 -64.89,134.98 -148.75,341.4 -212.22,467.55 -22.87,45.46 -40.84,86.63 -62.44,133l-118.83 263.54c-21.79,45.02 -43.2,90.34 -62.29,133.15 -160.95,360.75 -132.84,195.26 -56,608.08l200.34 1023.25 1402.02 0 0 4155.1 9933.15 0 0 -4104.12 1062.14 -8.49 68.15 -1146.94c-0.21,-49.13 4.84,-65.58 7.87,-102.59 5.96,-72.58 6.84,-140.69 8.7,-212.23 6.61,-255.17 46.75,-14.19 -62.47,-344.9l-800.92 -2521.45c-67.21,-228.23 -142.75,-445.1 -210.05,-673.65 -38.1,-129.33 -184.67,-576.82 -209.37,-682.83 -1588.29,0 -3167.09,16.99 -4758.39,16.99 -403.21,0 -778.72,8.5 -1181.1,8.5 -399.37,0 -798.73,0 -1198.1,0 -205.54,0 -386.81,8.5 -586.3,8.5 -600.46,0 -1200.93,0 -1801.39,0z"/>
   <path class="fil1" d="M1952.74 67.97c-79.03,149.37 -198.72,451 -283.29,617.41l-113.63 251.75c-10.71,25.1 -19.08,38.03 -30.88,62.57 -77.54,161.27 -179.38,411.29 -254.71,561.02 -21.29,42.31 -36.83,81.39 -56.83,121.61 -11.06,22.23 -16.61,40.29 -28.19,65.27l-201.23 436.05c-70.87,142.5 -154.5,352.92 -226.53,495.72l-58.69 128.25c-20.02,48.48 -37.01,76.38 -55.76,122.68l-372.8 816.8c-9.74,21.86 -19.68,37.49 -30.29,63.19 -19.04,46.09 -35.37,80.33 -54.68,123.75 -9.47,21.29 -20.18,38.87 -31.09,62.38 -11.79,25.43 -16.42,42.76 -28.28,65.18l12592.75 0 -570.46 -1749.26c-133.36,-396.84 -260.12,-857.91 -392.82,-1264.11l-235.91 -758.27c-12.73,-41.5 -28.74,-91.01 -39.6,-130.33 -11.66,-42.2 -34.85,-92.23 -35.79,-134.16 -205.88,0 -382.96,8.5 -586.3,8.5l-1784.46 -0.06c-59.58,-0.3 -84.83,8.27 -135.56,8.89 -628.46,7.77 -1303.59,-0.27 -1937.68,-0.34 -108.08,-0.01 -186.85,8.5 -297.41,8.5 -396.53,0 -793.06,0 -1189.6,0 -402.47,0 -785.85,8.5 -1181.1,8.5 -396.54,0 -793.07,0 -1189.61,0 -404.12,0 -783.17,8.49 -1189.6,8.49z"/>
   <path class="fil0" d="M11240.11 5680.31c-104.58,20.19 -2051.81,-4.27 -2217.75,-4.27l-1315.14 -0.89c-57.75,-11.01 25.59,-11.58 -60.3,-16.66 -146.47,-8.66 -669.9,0.55 -842.32,0.55l-2506.65 0c-36.52,0 -102.56,4.02 -135.5,0.09 -46.41,-5.55 1.21,-17.69 -127.93,-17.1 -202.84,0.92 -1605.08,10.73 -1682.42,-4.21l-671.27 -4.34 0 4146.71 9899.15 0 0 -4095.62 -339.88 -4.28z"/>
   <path class="fil2" d="M287.31 5616.6c475.84,0 951.67,0 1427.51,0 481.31,0 945.44,8.5 1419.03,8.5 959.46,0 1893.86,8.5 2855.03,8.5 236.52,0 461.11,8.49 705.27,8.49 1540.28,0 3081.87,17 4622.44,17 59.55,0 119.2,-0.41 178.73,-0.29 40.63,0.08 57.93,7.89 84.67,7.89 26.99,0 43.82,-7.6 84.97,-7.6l968.67 0c0,-166.17 25.23,-415.47 34.02,-586.27 3.9,-75.9 6.11,-128.28 8.2,-204.23l14.93 -188.99c4.65,-33.92 0.51,-65.91 2.29,-99.69l16.58 -195.84c2.74,-33.3 -2.02,-67.1 1.7,-100.28l15.75 -196.68 -12618.23 0c-8.27,35.5 -15.63,48.56 -31.19,79.27 -71.5,141.06 -54.35,117.54 -23.33,272.65l154.39 780.3c27.53,136.13 48.21,266.98 78.57,397.26z"/>
   <path class="fil3" d="M4693.25 8073.12l19.89 0c0,-52.56 -7.45,-66.41 -8.78,-110.99 -6.59,-221.77 18.96,-439.73 97.31,-643.21 13.79,-35.81 32.85,-60.02 23.96,-91.93 -31.73,3.06 -208.99,-39.01 -257.64,-46.44 -321.67,-49.08 -415.03,-44.47 -728.87,-44.85l-154.83 8.5c7.29,32.78 2.53,15.83 21.57,41.66 141.72,192.32 249.54,316.92 422.22,486.97l128.38 109.74c81.56,65.52 194.11,152.37 283.7,201.03l149.2 86.11c0.74,0.57 2.71,2.16 3.9,3.4z"/>
   <path class="fil3" d="M8613.65 7227c-8.77,31.48 32.37,119.61 51.96,182.99 37.66,121.85 69.9,289.79 69.13,424.28 -0.5,88.99 -8.61,159.94 -8.61,238.86l19.89 0 365.37 -234.43c27.39,-20.34 41.44,-34.73 65.47,-53.49 73.17,-57.08 220.45,-187.19 271.8,-255.67l36.5 -39.56c27.66,-26.88 35.54,-38.69 60.03,-67.62 38.11,-45 73.24,-84.8 107.94,-130.09 17.79,-23.23 31.27,-44.63 49.56,-69.41 22.12,-29.97 36.95,-43.1 52.31,-78.64 -34.04,0 -62.71,-8.7 -146.32,-8.51 -139.86,0.32 -330.01,-4.08 -458.02,9.74 -132.75,14.35 -269.9,30.83 -401.61,57.45 -38.96,7.88 -96.26,27.16 -135.39,24.11z"/>
   <path class="fil3" d="M8292.45 8246.28c-6.11,-41.11 -18.27,-70.02 -27.56,-105.5l-80.21 -412.78c-15.21,-105.5 -4.5,-311.47 -24.6,-336.35 -17.97,18.76 -111.71,58.28 -146.76,78.99 -51.94,30.69 -94.74,58.79 -141,88.52l-225.9 173.55c-7.34,6.84 -4.28,4.26 -13.73,11.62 -111.87,87.18 -122.45,123.96 -186.28,187.98 -39.9,40.03 -68.91,86.07 -102.53,127.11l-141.81 210.15 265.53 33.49c469.09,35.25 790.73,-59.45 824.83,-56.79z"/>
   <path class="fil3" d="M5180.81 8254.78l240.72 37.9c191.65,23.68 360.52,24.65 550.11,10.4l257.03 -33.49c-8.97,-45.44 -95.58,-159.03 -129.86,-205.03l-154.51 -185.31c-1.08,-1.47 -2.46,-3.58 -3.56,-5.03 -16.94,-22.21 -33.79,-36.26 -54.06,-56.61l-386.48 -302.28 -221.02 -123.66c-1.48,1.83 -2.82,4.57 -3.47,6.14 -2.68,6.52 -8.8,-8.11 -8.57,53.74 0.72,193.14 -25.35,419.94 -70.61,600.91 -11.44,45.75 -46.87,152.88 -47.69,190.61 53.09,0 18.67,-1.05 31.97,11.71z"/>
   <path class="fil4" d="M4693.25 8073.12c16.24,20.99 23.93,22.43 47.95,34.02 20.29,9.8 34.15,17.71 56.87,28.07 43.62,19.87 74.15,32.77 120.24,50.22 54.02,20.45 203.79,75.33 262.49,69.35 -13.31,-12.77 21.12,-11.71 -31.97,-11.71 0.82,-37.74 36.25,-144.86 47.69,-190.61 45.26,-180.98 71.34,-407.77 70.61,-600.91 -0.23,-61.85 5.89,-47.22 8.57,-53.74 0.65,-1.58 2,-4.32 3.47,-6.14 -8.56,-11.07 -4.9,-8.81 -19.7,-19.34 -11.37,-8.08 -16.76,-9.31 -29.08,-14.3 -18.82,-7.63 -36.42,-14.99 -53.58,-22.52 -66.75,-29.26 -293.27,-113.03 -351.19,-108.5 8.89,31.91 -10.17,56.12 -23.96,91.93 -78.35,203.48 -103.9,421.44 -97.31,643.21 1.33,44.58 8.78,58.43 8.78,110.99l-19.89 0z"/>
   <path class="fil4" d="M8160.08 7391.66c20.1,24.88 9.38,230.85 24.6,336.35l80.21 412.78c9.29,35.48 21.45,64.39 27.56,105.5 76.19,5.96 390.22,-117.92 438.94,-157.99l9.86 -9.81c1.19,-1.16 3.3,-3.47 4.77,-5.37l-19.89 0c0,-78.91 8.11,-149.87 8.61,-238.86 0.77,-134.49 -31.47,-302.43 -69.13,-424.28 -19.59,-63.38 -60.73,-151.5 -51.96,-182.99 -47.25,-3.69 -198.5,49.46 -241.47,64.71 -38.04,13.5 -73.28,29.11 -109.65,43.56 -17.83,7.08 -36.57,14.03 -54.56,22.26l-43.13 28.76c-1.18,1.16 -3.29,3.48 -4.76,5.37z"/>
   <path class="fil5" d="M11240.11 5680.31l339.88 4.28 0 4095.62 -9899.15 0 0 -4146.71 671.27 4.34c-16.53,-15.72 -1.73,-14.19 -76.3,-12.98 -28.37,0.46 -56.76,0.25 -85.14,0.25l-518.33 0 0 4163.59 9916.15 0 0 -4112.61 -348.38 4.23z"/>
  </g>
 </g>
</svg>
